<svg width="16" height="20" viewBox="0 0 16 20" fill="none" xmlns="http://www.w3.org/2000/svg">
<path d="M14.2857 7.85714C14.2857 6.15218 13.6084 4.51705 12.4028 3.31146C11.1972 2.10587 9.56211 1.42857 7.85714 1.42857C6.15218 1.42857 4.51705 2.10587 3.31146 3.31146C2.10587 4.51705 1.42857 6.15218 1.42857 7.85714C1.42857 10.4943 3.53857 13.9314 7.85714 18.0486C12.1757 13.9314 14.2857 10.4943 14.2857 7.85714ZM7.85714 20C2.61857 15.2386 0 11.19 0 7.85714C0 5.7733 0.827804 3.7748 2.3013 2.3013C3.7748 0.827804 5.7733 0 7.85714 0C9.94099 0 11.9395 0.827804 13.413 2.3013C14.8865 3.7748 15.7143 5.7733 15.7143 7.85714C15.7143 11.19 13.0957 15.2386 7.85714 20Z" fill="#777777"/>
<path d="M7.85715 9.99999C8.42547 9.99999 8.97051 9.77423 9.37238 9.37236C9.77424 8.9705 10 8.42546 10 7.85713C10 7.28881 9.77424 6.74377 9.37238 6.34191C8.97051 5.94004 8.42547 5.71428 7.85715 5.71428C7.28883 5.71428 6.74378 5.94004 6.34192 6.34191C5.94006 6.74377 5.71429 7.28881 5.71429 7.85713C5.71429 8.42546 5.94006 8.9705 6.34192 9.37236C6.74378 9.77423 7.28883 9.99999 7.85715 9.99999ZM7.85715 11.4286C6.90995 11.4286 6.00154 11.0523 5.33177 10.3825C4.662 9.71274 4.28572 8.80434 4.28572 7.85713C4.28572 6.90993 4.662 6.00153 5.33177 5.33175C6.00154 4.66198 6.90995 4.28571 7.85715 4.28571C8.80435 4.28571 9.71276 4.66198 10.3825 5.33175C11.0523 6.00153 11.4286 6.90993 11.4286 7.85713C11.4286 8.80434 11.0523 9.71274 10.3825 10.3825C9.71276 11.0523 8.80435 11.4286 7.85715 11.4286Z" fill="#777777"/>
</svg>
