<svg width="231" height="35" viewBox="0 0 231 35" fill="none" xmlns="http://www.w3.org/2000/svg">
<circle cx="17.5" cy="17.5" r="17.5" fill="#4DC416" fill-opacity="0.44"/>
<path d="M19.25 18.625H21.125L21.875 15.625H19.25V14.125C19.25 13.3525 19.25 12.625 20.75 12.625H21.875V10.105C21.6305 10.0728 20.7072 10 19.7322 10C17.696 10 16.25 11.2427 16.25 13.525V15.625H14V18.625H16.25V25H19.25V18.625Z" fill="white"/>
<circle cx="66.5" cy="17.5" r="17.5" fill="#4DC416" fill-opacity="0.44"/>
<path d="M66 15.67C64.71 15.67 63.67 16.72 63.67 18C63.67 19.28 64.72 20.33 66 20.33C67.28 20.33 68.33 19.28 68.33 18C68.33 16.72 67.28 15.67 66 15.67ZM73 18C73 17.03 73 16.08 72.95 15.11C72.9 13.99 72.64 12.99 71.82 12.18C71 11.36 70.01 11.1 68.89 11.05C67.92 11 66.97 11 66 11C65.03 11 64.08 11 63.11 11.05C61.99 11.1 60.99 11.36 60.18 12.18C59.36 13 59.1 13.99 59.05 15.11C59 16.08 59 17.03 59 18C59 18.97 59 19.92 59.05 20.89C59.1 22.01 59.36 23.01 60.18 23.82C61 24.64 61.99 24.9 63.11 24.95C64.08 25 65.03 25 66 25C66.97 25 67.92 25 68.89 24.95C70.01 24.9 71.01 24.64 71.82 23.82C72.64 23 72.9 22.01 72.95 20.89C73.01 19.93 73 18.97 73 18ZM66 21.59C64.01 21.59 62.41 19.99 62.41 18C62.41 16.01 64.01 14.41 66 14.41C67.99 14.41 69.59 16.01 69.59 18C69.59 19.99 67.99 21.59 66 21.59ZM69.74 15.1C69.28 15.1 68.9 14.73 68.9 14.26C68.9 13.79 69.27 13.42 69.74 13.42C70.21 13.42 70.58 13.79 70.58 14.26C70.5825 14.3695 70.5625 14.4784 70.5212 14.5799C70.48 14.6814 70.4183 14.7733 70.34 14.85C70.2633 14.9283 70.1714 14.99 70.0699 15.0312C69.9684 15.0725 69.8595 15.0925 69.75 15.09L69.74 15.1Z" fill="white"/>
<circle cx="115.5" cy="17.5" r="17.5" fill="#4DC416" fill-opacity="0.44"/>
<path d="M122.759 13.4245C122.206 13.669 121.621 13.8295 121.021 13.901C121.653 13.5224 122.126 12.9269 122.351 12.2255C121.758 12.5788 121.107 12.8265 120.429 12.9604C119.973 12.4728 119.369 12.1495 118.711 12.0406C118.052 11.9317 117.376 12.0434 116.788 12.3583C116.2 12.6733 115.732 13.1738 115.457 13.7821C115.182 14.3903 115.117 15.0723 115.269 15.7219C114.065 15.6617 112.887 15.3489 111.812 14.8037C110.737 14.2586 109.788 13.4934 109.027 12.5578C108.758 13.0201 108.617 13.5456 108.618 14.0805C108.618 15.1304 109.153 16.0579 109.964 16.6009C109.484 16.5858 109.013 16.4559 108.593 16.2223V16.2592C108.593 16.9585 108.835 17.6363 109.278 18.1777C109.72 18.719 110.337 19.0905 111.022 19.2292C110.576 19.3503 110.108 19.3681 109.654 19.2814C109.847 19.8833 110.224 20.4098 110.731 20.787C111.239 21.1641 111.851 21.3731 112.483 21.3847C111.855 21.8781 111.136 22.2429 110.366 22.458C109.597 22.6732 108.793 22.7346 108 22.6388C109.384 23.5289 110.995 24.0015 112.641 24C118.212 24 121.257 19.3856 121.257 15.3838C121.257 15.2535 121.254 15.1217 121.249 14.9921C121.841 14.5637 122.353 14.0324 122.759 13.4245Z" fill="white"/>
<circle cx="213.5" cy="17.5" r="17.5" fill="#4DC416" fill-opacity="0.44"/>
<path d="M212.286 19.8571L216.364 17.5L212.286 15.1429V19.8571ZM221.369 13.705C221.471 14.0743 221.541 14.5693 221.589 15.1979C221.644 15.8264 221.667 16.3686 221.667 16.84L221.714 17.5C221.714 19.2207 221.589 20.4857 221.369 21.295C221.172 22.0021 220.716 22.4579 220.009 22.6543C219.64 22.7564 218.964 22.8271 217.927 22.8743C216.906 22.9293 215.971 22.9529 215.106 22.9529L213.857 23C210.565 23 208.514 22.8743 207.705 22.6543C206.998 22.4579 206.542 22.0021 206.346 21.295C206.244 20.9257 206.173 20.4307 206.126 19.8021C206.071 19.1736 206.047 18.6314 206.047 18.16L206 17.5C206 15.7793 206.126 14.5143 206.346 13.705C206.542 12.9979 206.998 12.5421 207.705 12.3457C208.074 12.2436 208.75 12.1729 209.787 12.1257C210.809 12.0707 211.744 12.0471 212.608 12.0471L213.857 12C217.149 12 219.2 12.1257 220.009 12.3457C220.716 12.5421 221.172 12.9979 221.369 13.705Z" fill="white"/>
<circle cx="164.5" cy="17.5" r="17.5" fill="#4DC416" fill-opacity="0.44"/>
<path d="M160.325 12C159.973 12 159.636 12.1396 159.388 12.388C159.14 12.6364 159 12.9733 159 13.3247C159 13.676 159.14 14.0129 159.388 14.2614C159.636 14.5098 159.973 14.6494 160.325 14.6494C160.676 14.6494 161.013 14.5098 161.261 14.2614C161.51 14.0129 161.649 13.676 161.649 13.3247C161.649 12.9733 161.51 12.6364 161.261 12.388C161.013 12.1396 160.676 12 160.325 12ZM159.078 15.7403C159.057 15.7403 159.037 15.7485 159.023 15.7631C159.008 15.7777 159 15.7975 159 15.8182V23.9221C159 23.9651 159.035 24 159.078 24H161.571C161.592 24 161.612 23.9918 161.627 23.9772C161.641 23.9626 161.649 23.9427 161.649 23.9221V15.8182C161.649 15.7975 161.641 15.7777 161.627 15.7631C161.612 15.7485 161.592 15.7403 161.571 15.7403H159.078ZM163.13 15.7403C163.109 15.7403 163.089 15.7485 163.075 15.7631C163.06 15.7777 163.052 15.7975 163.052 15.8182V23.9221C163.052 23.9651 163.087 24 163.13 24H165.623C165.644 24 165.664 23.9918 165.678 23.9772C165.693 23.9626 165.701 23.9427 165.701 23.9221V19.5584C165.701 19.2484 165.824 18.9512 166.044 18.732C166.263 18.5128 166.56 18.3896 166.87 18.3896C167.18 18.3896 167.477 18.5128 167.697 18.732C167.916 18.9512 168.039 19.2484 168.039 19.5584V23.9221C168.039 23.9651 168.074 24 168.117 24H170.61C170.631 24 170.651 23.9918 170.665 23.9772C170.68 23.9626 170.688 23.9427 170.688 23.9221V18.5486C170.688 17.0356 169.373 15.8525 167.868 15.989C167.402 16.0314 166.945 16.1467 166.515 16.3306L165.701 16.6797V15.8182C165.701 15.7975 165.693 15.7777 165.678 15.7631C165.664 15.7485 165.644 15.7403 165.623 15.7403H163.13Z" fill="white"/>
</svg>
