<svg width="20" height="20" viewBox="0 0 20 20" fill="none" xmlns="http://www.w3.org/2000/svg">
<path d="M1.51744 14.9482V18.4826H5.05184L15.476 8.04901L11.9416 4.51461L1.51744 14.9482ZM20 15.9943L15.9943 20L11.0933 15.099L12.7615 13.4307L13.7041 14.3732L16.032 12.0358L17.3704 13.3742L15.9943 14.7125L16.9934 15.655L18.3318 14.3355L20 15.9943ZM4.91989 8.89727L0 4.00565L4.00565 0L5.66447 1.66824L3.33647 4.00565L4.34496 5.00471L6.66352 2.66729L8.00188 4.00565L6.66352 5.33459L7.60603 6.2771L4.91989 8.89727ZM18.2092 5.28746C18.5768 4.91989 18.5768 4.34496 18.2092 3.95853L16.0038 1.79076C15.655 1.42319 15.0424 1.42319 14.6748 1.79076L12.9406 3.51555L16.475 7.04995L18.2092 5.28746Z" fill="#4E1D9A"/>
</svg>
