<svg width="10" height="10" viewBox="0 0 10 10" fill="none" xmlns="http://www.w3.org/2000/svg">
<path d="M5.21427 7.99986C5.95309 7.99986 6.66164 7.70637 7.18407 7.18394C7.70649 6.66152 7.99998 5.95296 7.99998 5.21415C7.99998 4.47533 7.70649 3.76677 7.18407 3.24435C6.66164 2.72193 5.95309 2.42843 5.21427 2.42843C4.47545 2.42843 3.76689 2.72193 3.24447 3.24435C2.72205 3.76677 2.42855 4.47533 2.42855 5.21415C2.42855 5.95296 2.72205 6.66152 3.24447 7.18394C3.76689 7.70637 4.47545 7.99986 5.21427 7.99986ZM5.21427 9.857C3.98291 9.857 2.80198 9.36785 1.93127 8.49714C1.06057 7.62644 0.571411 6.44551 0.571411 5.21415C0.571411 3.98278 1.06057 2.80186 1.93127 1.93115C2.80198 1.06045 3.98291 0.571289 5.21427 0.571289C6.44563 0.571289 7.62656 1.06045 8.49726 1.93115C9.36797 2.80186 9.85713 3.98278 9.85713 5.21415C9.85713 6.44551 9.36797 7.62644 8.49726 8.49714C7.62656 9.36785 6.44563 9.857 5.21427 9.857Z" fill="#54B435"/>
</svg>
