<svg width="23" height="20" viewBox="0 0 23 20" fill="none" xmlns="http://www.w3.org/2000/svg">
<path d="M8.88889 14.4444V13.3333H1.12222L1.11111 17.7778C1.11111 19.0111 2.1 20 3.33333 20H18.8889C20.1222 20 21.1111 19.0111 21.1111 17.7778V13.3333H13.3333V14.4444H8.88889ZM20 4.44444H15.5444V2.22222L13.3222 0H8.87778L6.65555 2.22222V4.44444H2.22222C1 4.44444 0 5.44444 0 6.66667V10C0 11.2333 0.988889 12.2222 2.22222 12.2222H8.88889V10H13.3333V12.2222H20C21.2222 12.2222 22.2222 11.2222 22.2222 10V6.66667C22.2222 5.44444 21.2222 4.44444 20 4.44444ZM13.3333 4.44444H8.88889V2.22222H13.3333V4.44444Z" fill="#4E1D9A"/>
</svg>
