<svg width="21" height="26" viewBox="0 0 21 26" fill="none" xmlns="http://www.w3.org/2000/svg">
<path d="M18.5714 10.2143C18.5714 7.99783 17.6909 5.87216 16.1237 4.30489C14.5564 2.73762 12.4307 1.85714 10.2143 1.85714C7.99782 1.85714 5.87215 2.73762 4.30488 4.30489C2.73761 5.87216 1.85713 7.99783 1.85713 10.2143C1.85713 13.6426 4.60013 18.1109 10.2143 23.4631C15.8284 18.1109 18.5714 13.6426 18.5714 10.2143ZM10.2143 26C3.40413 19.8101 -1.52588e-05 14.547 -1.52588e-05 10.2143C-1.52588e-05 7.50529 1.07613 4.90725 2.99168 2.9917C4.90723 1.07615 7.50527 0 10.2143 0C12.9233 0 15.5213 1.07615 17.4369 2.9917C19.3524 4.90725 20.4286 7.50529 20.4286 10.2143C20.4286 14.547 17.0244 19.8101 10.2143 26Z" fill="#54B435"/>
</svg>
