<svg width="22" height="16" viewBox="0 0 22 16" fill="none" xmlns="http://www.w3.org/2000/svg">
<path d="M20.3333 0H1.66665C1.31302 0 0.973886 0.140476 0.723837 0.390524C0.473789 0.640573 0.333313 0.979711 0.333313 1.33333V14.6667C0.333313 15.0203 0.473789 15.3594 0.723837 15.6095C0.973886 15.8595 1.31302 16 1.66665 16H20.3333C20.6869 16 21.0261 15.8595 21.2761 15.6095C21.5262 15.3594 21.6666 15.0203 21.6666 14.6667V1.33333C21.6666 0.979711 21.5262 0.640573 21.2761 0.390524C21.0261 0.140476 20.6869 0 20.3333 0ZM19.3066 14.6667H2.77331L7.43998 9.84L6.47998 8.91333L1.66665 13.8933V2.34667L9.95331 10.5933C10.2031 10.8417 10.5411 10.9811 10.8933 10.9811C11.2456 10.9811 11.5835 10.8417 11.8333 10.5933L20.3333 2.14V13.8067L15.4266 8.9L14.4866 9.84L19.3066 14.6667ZM2.53998 1.33333H19.2533L10.8933 9.64667L2.53998 1.33333Z" fill="#54B435"/>
</svg>
