<svg width="20" height="20" viewBox="0 0 20 20" fill="none" xmlns="http://www.w3.org/2000/svg">
<path d="M13.3333 10.1969L14.9021 13.3333H11.7646L12.4271 12.0104L13.3333 10.1969ZM20 1.66667V18.3333C20 18.7754 19.8244 19.1993 19.5118 19.5118C19.1993 19.8244 18.7754 20 18.3333 20H1.66667C1.22464 20 0.800716 19.8244 0.488155 19.5118C0.175595 19.1993 0 18.7754 0 18.3333V1.66667C0 1.22464 0.175595 0.800716 0.488155 0.488155C0.800716 0.175595 1.22464 0 1.66667 0H18.3333C18.7754 0 19.1993 0.175595 19.5118 0.488155C19.8244 0.800716 20 1.22464 20 1.66667ZM18.2458 16.2937L14.0792 7.96042C14.0101 7.82174 13.9036 7.70509 13.7719 7.62354C13.6401 7.542 13.4883 7.4988 13.3333 7.4988C13.1784 7.4988 13.0265 7.542 12.8948 7.62354C12.763 7.70509 12.6566 7.82174 12.5875 7.96042L11.2146 10.7083C10.3314 10.5354 9.49392 10.1806 8.75521 9.66667C9.9066 8.36315 10.619 6.73062 10.7917 5H12.5C12.721 5 12.933 4.9122 13.0893 4.75592C13.2455 4.59964 13.3333 4.38768 13.3333 4.16667C13.3333 3.94565 13.2455 3.73369 13.0893 3.57741C12.933 3.42113 12.721 3.33333 12.5 3.33333H8.33333V2.5C8.33333 2.27899 8.24554 2.06702 8.08926 1.91074C7.93297 1.75446 7.72101 1.66667 7.5 1.66667C7.27899 1.66667 7.06702 1.75446 6.91074 1.91074C6.75446 2.06702 6.66667 2.27899 6.66667 2.5V3.33333H2.5C2.27899 3.33333 2.06702 3.42113 1.91074 3.57741C1.75446 3.73369 1.66667 3.94565 1.66667 4.16667C1.66667 4.38768 1.75446 4.59964 1.91074 4.75592C2.06702 4.9122 2.27899 5 2.5 5H9.1125C8.94718 6.31487 8.39211 7.55016 7.51875 8.54688C7.14875 8.11495 6.83384 7.63873 6.58125 7.12917C6.4789 6.93831 6.30627 6.7948 6.09994 6.72903C5.8936 6.66325 5.66976 6.68039 5.47584 6.77681C5.28192 6.87323 5.13316 7.04135 5.06106 7.24556C4.98896 7.44978 4.99919 7.67403 5.08958 7.87083C5.40853 8.51399 5.80753 9.11424 6.27708 9.65729C5.16715 10.4247 3.8494 10.835 2.5 10.8333C2.27899 10.8333 2.06702 10.9211 1.91074 11.0774C1.75446 11.2337 1.66667 11.4457 1.66667 11.6667C1.66667 11.8877 1.75446 12.0996 1.91074 12.2559C2.06702 12.4122 2.27899 12.5 2.5 12.5C4.3091 12.5019 6.06914 11.9118 7.51146 10.8198C8.38418 11.4869 9.3826 11.9708 10.4469 12.2427L8.42083 16.2937C8.32193 16.4916 8.30566 16.7206 8.37559 16.9304C8.44553 17.1402 8.59594 17.3136 8.79375 17.4125C8.99156 17.5114 9.22055 17.5277 9.43036 17.4577C9.64016 17.3878 9.8136 17.2374 9.9125 17.0396L10.9312 15H15.7354L16.7542 17.0396C16.8031 17.1375 16.8709 17.2249 16.9536 17.2966C17.0364 17.3684 17.1324 17.4231 17.2363 17.4577C17.3402 17.4924 17.4499 17.5062 17.5591 17.4984C17.6683 17.4907 17.775 17.4615 17.8729 17.4125C17.9709 17.3635 18.0582 17.2957 18.1299 17.213C18.2017 17.1303 18.2564 17.0342 18.2911 16.9304C18.3257 16.8265 18.3395 16.7168 18.3318 16.6076C18.324 16.4983 18.2948 16.3917 18.2458 16.2937Z" fill="#4E1D9A"/>
</svg>
