<svg width="22" height="22" viewBox="0 0 22 22" fill="none" xmlns="http://www.w3.org/2000/svg">
<path d="M20.3744 16.6718C19.611 15.9026 17.762 14.7801 16.865 14.3277C15.6967 13.7393 15.6006 13.6912 14.6824 14.3734C14.0699 14.8287 13.6627 15.2354 12.9459 15.0825C12.2291 14.9296 10.6715 14.0676 9.3076 12.7081C7.94371 11.3485 7.03173 9.7457 6.87837 9.0313C6.72501 8.31691 7.13846 7.91453 7.5894 7.30061C8.22495 6.43526 8.17687 6.29104 7.63363 5.12282C7.21009 4.2142 6.05485 2.38255 5.28277 1.62297C4.45684 0.807138 4.45684 0.951363 3.92465 1.17251C3.49139 1.3548 3.07573 1.57639 2.68288 1.8345C1.91368 2.34553 1.48678 2.77003 1.18823 3.40799C0.889688 4.04594 0.755559 5.54155 2.29732 8.34239C3.83908 11.1432 4.92076 12.5754 7.15961 14.808C9.39846 17.0406 11.12 18.241 13.6367 19.6525C16.7501 21.3962 17.9442 21.0563 18.5841 20.7582C19.224 20.4601 19.6504 20.0371 20.1624 19.2679C20.4212 18.8757 20.6433 18.4605 20.8259 18.0276C21.0475 17.4973 21.1917 17.4973 20.3744 16.6718Z" stroke="#54B435" stroke-width="2" stroke-miterlimit="10"/>
</svg>
