<svg width="20" height="20" viewBox="0 0 20 20" fill="none" xmlns="http://www.w3.org/2000/svg">
<path d="M8.23529 0C6.98722 0 5.79026 0.495797 4.90773 1.37832C4.02521 2.26085 3.52941 3.4578 3.52941 4.70588C3.52941 5.95396 4.02521 7.15092 4.90773 8.03344C5.79026 8.91597 6.98722 9.41177 8.23529 9.41177C9.48337 9.41177 10.6803 8.91597 11.5629 8.03344C12.4454 7.15092 12.9412 5.95396 12.9412 4.70588C12.9412 3.4578 12.4454 2.26085 11.5629 1.37832C10.6803 0.495797 9.48337 0 8.23529 0ZM2.36353 10.5882C2.05369 10.587 1.74665 10.6469 1.46003 10.7646C1.1734 10.8823 0.912829 11.0554 0.693246 11.274C0.473664 11.4926 0.299394 11.7524 0.180431 12.0385C0.0614681 12.3246 0.000152367 12.6313 0 12.9412C0 14.9306 0.98 16.4306 2.51177 17.4082C4.02 18.3694 6.05294 18.8235 8.23529 18.8235H8.29412C8.25489 18.6299 8.23518 18.4328 8.23529 18.2353V13.5294C8.23521 12.8428 8.47536 12.1778 8.91413 11.6496C9.3529 11.1214 9.96263 10.7634 10.6376 10.6376C10.6407 10.6212 10.6438 10.6047 10.6471 10.5882H2.36353ZM11.7647 11.1765V11.7647H11.1765C10.7084 11.7647 10.2596 11.9506 9.92864 12.2816C9.59769 12.6125 9.41177 13.0614 9.41177 13.5294V18.2353C9.41177 18.7033 9.59769 19.1522 9.92864 19.4831C10.2596 19.8141 10.7084 20 11.1765 20H18.2353C18.7033 20 19.1522 19.8141 19.4831 19.4831C19.8141 19.1522 20 18.7033 20 18.2353V13.5294C20 13.0614 19.8141 12.6125 19.4831 12.2816C19.1522 11.9506 18.7033 11.7647 18.2353 11.7647H17.6471V11.1765C17.6471 10.7084 17.4611 10.2596 17.1302 9.92864C16.7992 9.59769 16.3504 9.41177 15.8824 9.41177H13.5294C13.0614 9.41177 12.6125 9.59769 12.2816 9.92864C11.9506 10.2596 11.7647 10.7084 11.7647 11.1765ZM13.5294 10.5882H15.8824C16.0384 10.5882 16.188 10.6502 16.2983 10.7605C16.4086 10.8708 16.4706 11.0205 16.4706 11.1765V11.7647H12.9412V11.1765C12.9412 11.0205 13.0032 10.8708 13.1135 10.7605C13.2238 10.6502 13.3734 10.5882 13.5294 10.5882Z" fill="white"/>
</svg>
